<svg xmlns="http://www.w3.org/2000/svg" xmlns:xlink="http://www.w3.org/1999/xlink" viewBox="0 0 160 160"><path d="M 40.003 80 C 62.095 80 80.005 62.091 80.005 40 C 80.005 17.909 62.095 0 40.003 0 C 17.91 0 0 17.909 0 40 C 0 62.091 17.91 80 40.003 80 Z" fill="rgb(255,223,43)"></path><path d="M 42.008 0 L 14.103 0 C 6.314 0 0 6.281 0 14.029 L 0 41.785 L 42.008 41.785 Z" transform="translate(-0.011 0.066) rotate(-90 21.004 20.892)" fill="rgb(255,223,43)"></path><path d="M 79.994 38.105 L 38.097 38.105 L 38.097 79.999 L 79.994 79.999 Z" fill="rgb(255,223,43)"></path><path d="M 119.996 80 C 142.089 80 159.999 62.091 159.999 40 C 159.999 17.909 142.089 0 119.996 0 C 97.904 0 79.994 17.909 79.994 40 C 79.994 62.091 97.904 80 119.996 80 Z" fill="rgb(255,223,43)"></path><path d="M 159.988 41.95 L 159.988 0.055 L 118.091 0.055 L 118.091 41.95 Z" fill="rgb(255,223,43)"></path><path d="M 121.892 79.988 L 121.892 38.094 L 79.994 38.094 L 79.994 79.988 Z" fill="rgb(255,223,43)"></path><path d="M 119.998 160 C 142.09 160 160 142.091 160 120 C 160 97.908 142.089 80 119.996 80 C 97.904 80 79.995 97.908 79.995 120 C 79.995 142.091 97.905 160 119.998 160 Z" fill="rgb(255,223,43)"></path><path d="M 118.057 160 L 159.955 160 L 159.955 118.105 L 118.057 118.105 Z" fill="rgb(255,223,43)"></path><path d="M 80.005 121.894 L 121.902 121.894 L 121.902 79.999 L 80.005 79.999 Z" fill="rgb(255,223,43)"></path><path d="M 40.003 160 C 62.095 160 80.005 142.091 80.005 120 C 80.005 97.908 62.095 80 40.003 80 C 17.91 80 0 97.908 0 120 C 0 142.091 17.91 160 40.003 160 Z" fill="rgb(255,223,43)"></path><path d="M 0 118.049 L 0 159.944 L 41.897 159.944 L 41.897 118.049 Z" fill="rgb(255,223,43)"></path><path d="M 38.097 79.999 L 38.097 121.894 L 79.994 121.894 L 79.994 79.999 Z" fill="rgb(255,223,43)"></path></svg>