<svg xmlns="http://www.w3.org/2000/svg" xmlns:xlink="http://www.w3.org/1999/xlink" viewBox="0 0 132 132"><path d="M 121.871 71.55 C 128.096 65.815 132 57.597 132 48.465 C 132 31.133 117.95 17.083 100.619 17.083 C 92.742 17.083 85.549 19.992 80.039 24.785 C 76.387 10.535 63.459 0 48.07 0 C 29.844 0 15.07 14.775 15.07 33 C 15.07 42.3 18.923 50.696 25.113 56.695 C 10.436 62.266 0 76.453 0 93.083 C 0 114.577 17.423 132 38.917 132 C 54.084 132 67.215 123.317 73.637 110.657 C 79.109 119.852 89.142 126.016 100.619 126.016 C 117.95 126.016 132 111.966 132 94.634 C 132 85.502 128.096 77.285 121.871 71.55 Z" fill="rgba(255, 157, 101, 0.6)"></path></svg>